{
.appVersion = "1271";
copyright = "Copyright 2018 Google LLC. All Rights Reserved.";
customParameters = (
{
name = glyphOrder;
value = (
.notdef,
NULL,
CR,
space,
uni00A0,
u1089A,
u1089B,
u1089C,
u1089D,
u10898,
u10899,
u10896,
u10897,
u108A8,
u1089E,
u108A7,
u10880,
u10881,
u10882,
u10883,
u10884,
u10885,
u10886,
u10887,
u10888,
u10889,
u1088A,
u1088B,
u1088C,
u1088D,
u1088E,
u1088F,
u10894,
u10895,
u10890,
u10891,
u10892,
u10893,
u108A9,
u108AA,
u108AB,
u108AC,
u108AD,
u108AE,
u108AF
);
},
{
name = description;
value = "Designed by Monotype design team.";
},
{
name = license;
value = "This Font Software is licensed under the SIL Open Font License, Version 1.1. This Font Software is distributed on an \"AS IS\" BASIS, WITHOUT WARRANTIES OR CONDITIONS OF ANY KIND, either express or implied. See the SIL Open Font License for the specific language, permissions and limitations governing your use of this Font Software.";
},
{
name = licenseURL;
value = "http://scripts.sil.org/OFL";
},
{
name = vendorID;
value = GOOG;
},
{
name = unicodeRanges;
value = (
0,
1,
57
);
},
{
name = trademark;
value = "Noto is a trademark of Google Inc.";
},
{
name = "Has WWS Names";
value = 1;
},
{
name = versionString;
value = "Version 2.000";
},
{
name = fsType;
value = (
);
},
{
name = codePageRanges;
value = (
"1252"
);
}
);
date = "2018-02-05 21:10:39 +0000";
designer = "Monotype Design Team";
designerURL = "http://www.monotype.com/studio";
disablesAutomaticAlignment = 1;
disablesNiceNames = 1;
familyName = "Noto Sans Nabataean";
fontMaster = (
{
alignmentZones = (
"{730, 15}",
"{640, 15}",
"{550, 15}",
"{0, -15}",
"{-163, -15}"
);
ascender = 730;
capHeight = 640;
customParameters = (
{
name = typoAscender;
value = 1069;
},
{
name = typoDescender;
value = -293;
},
{
name = typoLineGap;
value = 0;
},
{
name = winAscent;
value = 1069;
},
{
name = winDescent;
value = 293;
},
{
name = hheaAscender;
value = 1069;
},
{
name = hheaDescender;
value = -293;
},
{
name = hheaLineGap;
value = 0;

glyphs = (
{
glyphname = .notdef;
lastChange = "2018-02-05 21:34:13 +0000";
layers = (
{
layerId = UUID0;
paths = (
{
closed = 1;
nodes = (
"505 0 LINE",
"505 714 LINE",
"94 714 LINE",
"94 0 LINE"
);
},
{
closed = 1;
nodes = (
"145 663 LINE",
"454 663 LINE",
"454 51 LINE",
"145 51 LINE"
);
}
);
width = 600;
}
);
},
{
glyphname = u1089A;
lastChange = "2018-02-05 21:34:13 +0000";
layers = (
{
layerId = UUID0;
paths = (
{
closed = 1;
nodes = (
"111 -162 OFFCURVE",
"177 -41 OFFCURVE",
"177 74 CURVE SMOOTH",
"177 318 LINE",
"335 333 OFFCURVE",
"392 390 OFFCURVE",
"392 493 CURVE SMOOTH",
"392 603 OFFCURVE",
"322 640 OFFCURVE",
"209 640 CURVE SMOOTH",
"114 640 OFFCURVE",
"89 630 OFFCURVE",
"89 582 CURVE SMOOTH",
"89 76 LINE SMOOTH",
"89 27 OFFCURVE",
"71 -49 OFFCURVE",
"2 -92 CURVE SMOOTH",
"-17 -104 OFFCURVE",
"-20 -115 OFFCURVE",
"-20 -130 CURVE SMOOTH",
"-20 -156 OFFCURVE",
"-4 -163 OFFCURVE",
"15 -163 CURVE SMOOTH"
);
},
{
closed = 1;
nodes = (
"177 558 LINE",
"195 563 OFFCURVE",
"210 565 OFFCURVE",
"227 565 CURVE SMOOTH",
"276 565 OFFCURVE",
"302 540 OFFCURVE",
"302 491 CURVE SMOOTH",
"302 424 OFFCURVE",
"252 407 OFFCURVE",
"177 397 CURVE"
);
}
);
width = 432;
}
);
unicode = 1089A;
},
{
glyphname = u1089B;
lastChange = "2018-02-05 21:34:13 +0000";
layers = (
{
layerId = UUID0;
paths = (
{
closed = 1;
nodes = (
"294 -10 OFFCURVE",
"299 5 OFFCURVE",
"299 41 CURVE SMOOTH",
"299 515 LINE SMOOTH",
"299 560 OFFCURVE",
"289 593 OFFCURVE",
"231 607 CURVE SMOOTH",
"139 630 OFFCURVE",
"65 640 OFFCURVE",
"42 640 CURVE SMOOTH",
"22 640 OFFCURVE",
"10 629 OFFCURVE",
"10 598 CURVE SMOOTH",
"10 571 OFFCURVE",
"20 561 OFFCURVE",
"47 556 CURVE SMOOTH",
"170 533 LINE SMOOTH",
"206 526 OFFCURVE",
"211 507 OFFCURVE",
"211 469 CURVE SMOOTH",
"211 41 LINE SMOOTH",
"211 5 OFFCURVE",
"217 -10 OFFCURVE",
"256 -10 CURVE SMOOTH"
);
}
);
width = 389;
}
);
rightMetricsKey = u108A7;
unicode = 1089B;
},
{
glyphname = u1089C;
lastChange = "2018-02-05 21:34:13 +0000";
layers = (
{
layerId = UUID0;
paths = (
{
closed = 1;
nodes = (
"173 -163 OFFCURVE",
"178 -148 OFFCURVE",
"178 -112 CURVE SMOOTH",
"178 170 LINE",
"398 290 LINE SMOOTH",
"423 304 OFFCURVE",
"433 310 OFFCURVE",
"433 326 CURVE SMOOTH",
"433 350 OFFCURVE",
"419 375 OFFCURVE",
"401 375 CURVE SMOOTH",
"389 375 OFFCURVE",
"377 369 OFFCURVE",
"363 361 CURVE SMOOTH",
"178 260 LINE",
"178 368 LINE",
"323 449 LINE SMOOTH",
"348 463 OFFCURVE",
"358 469 OFFCURVE",
"358 485 CURVE SMOOTH",
"358 509 OFFCURVE",
"344 534 OFFCURVE",
"326 534 CURVE SMOOTH",
"314 534 OFFCURVE",
"302 528 OFFCURVE",
"288 520 CURVE SMOOTH",
"178 458 LINE",
"178 499 LINE SMOOTH",
"178 535 OFFCURVE",
"172 550 OFFCURVE",
"133 550 CURVE SMOOTH",
"95 550 OFFCURVE",
"90 535 OFFCURVE",
"90 499 CURVE SMOOTH",
"90 -112 LINE SMOOTH",
"90 -148 OFFCURVE",
"96 -163 OFFCURVE",
"135 -163 CURVE SMOOTH"
);
}
);
width = 483;
}
);
leftMetricsKey = u108A7;
unicode = 1089C;
},
{
glyphname = u1089D;
lastChange = "2018-02-05 21:34:13 +0000";
layers = (
{
layerId = UUID0;
paths = (
{
closed = 1;
nodes = (
"174 -163 OFFCURVE",
"206 -107 OFFCURVE",
"206 -15 CURVE SMOOTH",
"206 244 LINE",
"426 364 LINE SMOOTH",
"451 378 OFFCURVE",
"461 384 OFFCURVE",
"461 400 CURVE SMOOTH",
"461 424 OFFCURVE",
"447 449 OFFCURVE",
"429 449 CURVE SMOOTH",
"417 449 OFFCURVE",
"405 443 OFFCURVE",
"391 435 CURVE SMOOTH",
"206 334 LINE",
"206 442 LINE",
"351 523 LINE SMOOTH",
"376 537 OFFCURVE",
"386 543 OFFCURVE",
"386 559 CURVE SMOOTH",
"386 583 OFFCURVE",
"372 608 OFFCURVE",
"354 608 CURVE SMOOTH",
"342 608 OFFCURVE",
"330 602 OFFCURVE",
"316 594 CURVE SMOOTH",
"206 532 LINE",
"206 589 LINE SMOOTH",
"206 625 OFFCURVE",
"200 640 OFFCURVE",
"161 640 CURVE SMOOTH",
"123 640 OFFCURVE",
"118 625 OFFCURVE",
"118 589 CURVE SMOOTH",
"118 6 LINE SMOOTH",
"118 -41 OFFCURVE",
"113 -90 OFFCURVE",
"68 -90 CURVE SMOOTH",
"51 -90 OFFCURVE",
"39 -86 OFFCURVE",
"28 -80 CURVE SMOOTH",
"20 -75 OFFCURVE",
"10 -69 OFFCURVE",
"-2 -69 CURVE SMOOTH",
"-21 -69 OFFCURVE",
"-29 -81 OFFCURVE",
"-29 -105 CURVE SMOOTH",
"-29 -147 OFFCURVE",
"18 -163 OFFCURVE",
"70 -163 CURVE SMOOTH"
);
}
);
width = 511;
}
);
rightMetricsKey = u1089C;
unicode = 1089D;
},
{
glyphname = u10898;
lastChange = "2018-02-05 21:34:13 +0000";
layers = (
{
layerId = UUID0;
paths = (
{
closed = 1;
nodes = (
"364 -10 OFFCURVE",
"367 97 OFFCURVE",
"367 193 CURVE SMOOTH",
"367 443 LINE SMOOTH",
"367 533 OFFCURVE",
"346 640 OFFCURVE",
"205 640 CURVE SMOOTH",
"107 640 OFFCURVE",
"40 587 OFFCURVE",
"40 491 CURVE SMOOTH",
"40 402 OFFCURVE",
"101 348 OFFCURVE",
"199 348 CURVE SMOOTH",
"231 348 OFFCURVE",
"266 354 OFFCURVE",
"304 372 CURVE",
"304 437 LINE",
"264 424 OFFCURVE",
"233 419 OFFCURVE",
"209 419 CURVE SMOOTH",
"134 419 OFFCURVE",
"125 469 OFFCURVE",
"125 496 CURVE SMOOTH",
"125 535 OFFCURVE",
"146 566 OFFCURVE",
"198 566 CURVE SMOOTH",
"279 566 OFFCURVE",
"279 488 OFFCURVE",
"279 456 CURVE SMOOTH",
"279 213 LINE SMOOTH",
"279 120 OFFCURVE",
"274 68 OFFCURVE",
"217 68 CURVE SMOOTH",
"191 68 OFFCURVE",
"159 80 OFFCURVE",
"135 92 CURVE SMOOTH",
"117 101 OFFCURVE",
"103 106 OFFCURVE",
"94 106 CURVE SMOOTH",
"74 106 OFFCURVE",
"61 80 OFFCURVE",
"61 62 CURVE SMOOTH",
"61 47 OFFCURVE",
"67 41 OFFCURVE",
"76 35 CURVE SMOOTH",
"103 17 OFFCURVE",
"153 -10 OFFCURVE",
"222 -10 CURVE SMOOTH"
);
}
);
width = 457;
}
);
rightMetricsKey = u108A7;
unicode = 10898;
},
{
glyphname = u10899;
lastChange = "2018-02-05 21:34:13 +0000";
layers = (
{
layerId = UUID0;
paths = (
{
closed = 1;
nodes = (
"329 -10 OFFCURVE",
"331 97 OFFCURVE",
"331 193 CURVE SMOOTH",
"331 503 LINE",
"356 507 OFFCURVE",
"381 509 OFFCURVE",
"414 509 CURVE SMOOTH",
"468 509 OFFCURVE",
"497 495 OFFCURVE",
"497 456 CURVE SMOOTH",
"497 413 OFFCURVE",
"454 390 OFFCURVE",
"408 376 CURVE SMOOTH",
"398 373 OFFCURVE",
"394 366 OFFCURVE",
"394 355 CURVE SMOOTH",
"394 328 OFFCURVE",
"407 314 OFFCURVE",
"434 314 CURVE SMOOTH",
"468 314 OFFCURVE",
"584 345 OFFCURVE",
"584 468 CURVE SMOOTH",
"584 553 OFFCURVE",
"501 584 OFFCURVE",
"409 584 CURVE SMOOTH",
"379 584 OFFCURVE",
"358 581 OFFCURVE",
"331 576 CURVE",
"331 589 LINE SMOOTH",
"331 625 OFFCURVE",
"325 640 OFFCURVE",
"286 640 CURVE SMOOTH",
"248 640 OFFCURVE",
"243 625 OFFCURVE",
"243 589 CURVE SMOOTH",
"243 213 LINE SMOOTH",
"243 120 OFFCURVE",
"238 68 OFFCURVE",
"181 68 CURVE SMOOTH",
"155 68 OFFCURVE",
"123 80 OFFCURVE",
"99 92 CURVE SMOOTH",
"81 101 OFFCURVE",
"67 106 OFFCURVE",
"58 106 CURVE SMOOTH",
"38 106 OFFCURVE",
"25 80 OFFCURVE",
"25 62 CURVE SMOOTH",
"25 47 OFFCURVE",
"31 41 OFFCURVE",
"40 35 CURVE SMOOTH",
"67 17 OFFCURVE",
"117 -10 OFFCURVE",
"186 -10 CURVE SMOOTH"
);
}
);
width = 624;
}
);
unicode = 10899;
},
{
glyphname = u10896;
lastChange = "2018-02-05 21:34:13 +0000";
layers = (
{
layerId = UUID0;
paths = (
{
closed = 1;
nodes = (
"264 -10 OFFCURVE",
"274 -6 OFFCURVE",
"296 3 CURVE SMOOTH",
"468 73 OFFCURVE",
"674 273 OFFCURVE",
"674 456 CURVE SMOOTH",
"674 543 OFFCURVE",
"620 595 OFFCURVE",
"516 595 CURVE SMOOTH",
"447 595 OFFCURVE",
"390 562 OFFCURVE",
"335 529 CURVE SMOOTH",
"317 518 OFFCURVE",
"299 507 OFFCURVE",
"280 498 CURVE",
"280 508 LINE SMOOTH",
"280 578 OFFCURVE",
"246 640 OFFCURVE",
"153 640 CURVE SMOOTH",
"84 640 OFFCURVE",
"26 587 OFFCURVE",
"26 515 CURVE SMOOTH",
"26 439 OFFCURVE",
"76 393 OFFCURVE",
"157 393 CURVE SMOOTH",
"171 393 OFFCURVE",
"184 394 OFFCURVE",
"197 396 CURVE",
"197 50 LINE SMOOTH",
"197 10 OFFCURVE",
"216 -10 OFFCURVE",
"244 -10 CURVE SMOOTH"
);
},
{
closed = 1;
nodes = (
"117 465 OFFCURVE",
"106 498 OFFCURVE",
"106 519 CURVE SMOOTH",
"106 550 OFFCURVE",
"125 566 OFFCURVE",
"149 566 CURVE SMOOTH",
"192 566 OFFCURVE",
"197 536 OFFCURVE",
"197 477 CURVE SMOOTH",
"197 468 LINE",
"185 466 OFFCURVE",
"173 465 OFFCURVE",
"161 465 CURVE SMOOTH"
);
},
{
closed = 1;
nodes = (
"280 420 LINE",
"307 432 OFFCURVE",
"334 447 OFFCURVE",
"363 464 CURVE SMOOTH",
"412 493 OFFCURVE",
"459 520 OFFCURVE",
"514 520 CURVE SMOOTH",
"560 520 OFFCURVE",
"586 496 OFFCURVE",
"586 447 CURVE SMOOTH",
"586 310 OFFCURVE",
"421 152 OFFCURVE",
"280 81 CURVE"
);
}
);
width = 714;
}
);
unicode = 10896;
},
{
glyphname = u10897;
lastChange = "2018-02-05 21:34:13 +0000";
layers = (
{
layerId = UUID0;
paths = (
{
closed = 1;
nodes = (
"70 -10 OFFCURVE",
"96 0 OFFCURVE",
"107 5 CURVE SMOOTH",
"347 114 OFFCURVE",
"520 325 OFFCURVE",
"520 520 CURVE SMOOTH",
"520 547 OFFCURVE",
"506 550 OFFCURVE",
"477 550 CURVE SMOOTH",
"444 550 OFFCURVE",
"437 538 OFFCURVE",
"434 508 CURVE SMOOTH",
"424 422 OFFCURVE",
"377 317 OFFCURVE",
"295 231 CURVE",
"239 269 OFFCURVE",
"194 358 OFFCURVE",
"194 457 CURVE SMOOTH",
"194 502 OFFCURVE",
"194 513 OFFCURVE",
"154 513 CURVE SMOOTH",
"111 513 OFFCURVE",
"107 489 OFFCURVE",
"107 434 CURVE SMOOTH",
"107 339 OFFCURVE",
"162 228 OFFCURVE",
"233 174 CURVE",
"191 139 OFFCURVE",
"146 108 OFFCURVE",
"96 87 CURVE SMOOTH",
"41 64 OFFCURVE",
"20 55 OFFCURVE",
"20 30 CURVE SMOOTH",
"20 4 OFFCURVE",
"35 -10 OFFCURVE",
"56 -10 CURVE SMOOTH"
);
}
);
width = 560;
}
);
unicode = 10897;
},
{
glyphname = u108A8;
lastChange = "2018-02-05 21:34:13 +0000";
layers = (
{
layerId = UUID0;
paths = (
{
closed = 1;
nodes = (
"319 -10 OFFCURVE",
"370 23 OFFCURVE",
"370 132 CURVE SMOOTH",
"370 589 LINE SMOOTH",
"370 625 OFFCURVE",
"364 640 OFFCURVE",
"325 640 CURVE SMOOTH",
"287 640 OFFCURVE",
"285 625 OFFCURVE",
"285 589 CURVE SMOOTH",
"285 130 LINE SMOOTH",
"285 78 OFFCURVE",
"259 65 OFFCURVE",
"230 65 CURVE SMOOTH",
"199 65 OFFCURVE",
"175 78 OFFCURVE",
"175 130 CURVE SMOOTH",
"175 589 LINE SMOOTH",
"175 625 OFFCURVE",
"169 640 OFFCURVE",
"133 640 CURVE SMOOTH",
"95 640 OFFCURVE",
"90 625 OFFCURVE",
"90 589 CURVE SMOOTH",
"90 130 LINE SMOOTH",
"90 23 OFFCURVE",
"144 -10 OFFCURVE",
"227 -10 CURVE SMOOTH"
);
}
);
width = 460;
}
);
leftMetricsKey = u108A7;
rightMetricsKey = u108A7;
unicode = 108A8;
},
{
glyphname = u1089E;
lastChange = "2018-02-05 21:34:13 +0000";
layers = (
{
layerId = UUID0;
paths = (
{
closed = 1;
nodes = (
"216 -10 OFFCURVE",
"266 28 OFFCURVE",
"274 102 CURVE SMOOTH",
"279 152 OFFCURVE",
"288 300 OFFCURVE",
"295 427 CURVE",
"326 455 OFFCURVE",
"405 496 OFFCURVE",
"443 496 CURVE SMOOTH",
"471 496 OFFCURVE",
"479 482 OFFCURVE",
"479 447 CURVE SMOOTH",
"479 433 OFFCURVE",
"474 349 OFFCURVE",
"468 258 CURVE SMOOTH",
"461 155 OFFCURVE",
"455 45 OFFCURVE",
"455 24 CURVE SMOOTH",
"455 -2 OFFCURVE",
"472 -10 OFFCURVE",
"500 -10 CURVE SMOOTH",
"536 -10 OFFCURVE",
"542 2 OFFCURVE",
"544 28 CURVE SMOOTH",
"546 56 OFFCURVE",
"568 424 OFFCURVE",
"568 478 CURVE SMOOTH",
"568 555 OFFCURVE",
"542 585 OFFCURVE",
"483 585 CURVE SMOOTH",
"416 585 OFFCURVE",
"341 540 OFFCURVE",
"300 515 CURVE",
"303 560 OFFCURVE",
"305 592 OFFCURVE",
"305 613 CURVE SMOOTH",
"305 634 OFFCURVE",
"292 640 OFFCURVE",
"263 640 CURVE SMOOTH",
"242 640 OFFCURVE",
"219 637 OFFCURVE",
"218 612 CURVE SMOOTH",
"216 564 OFFCURVE",
"196 153 OFFCURVE",
"190 112 CURVE SMOOTH",
"185 77 OFFCURVE",
"165 65 OFFCURVE",
"138 65 CURVE SMOOTH",
"117 65 OFFCURVE",
"97 68 OFFCURVE",
"78 77 CURVE SMOOTH",
"65 83 OFFCURVE",
"52 87 OFFCURVE",
"39 87 CURVE SMOOTH",
"22 87 OFFCURVE",
"10 79 OFFCURVE",
"10 48 CURVE SMOOTH",
"10 -6 OFFCURVE",
"97 -10 OFFCURVE",
"142 -10 CURVE SMOOTH"
);
}
);
width = 656;
}
);
leftMetricsKey = u1089B;
unicode = 1089E;
},
{
glyphname = u108A7;
lastChange = "2018-02-05 21:34:13 +0000";
layers = (
{
layerId = UUID0;
paths = (
{
closed = 1;
nodes = (
"173 -10 OFFCURVE",
"178 5 OFFCURVE",
"178 41 CURVE SMOOTH",
"178 589 LINE SMOOTH",
"178 625 OFFCURVE",
"172 640 OFFCURVE",
"133 640 CURVE SMOOTH",
"95 640 OFFCURVE",
"90 625 OFFCURVE",
"90 589 CURVE SMOOTH",
"90 41 LINE SMOOTH",
"90 5 OFFCURVE",
"96 -10 OFFCURVE",
"135 -10 CURVE SMOOTH"
);
}
);
width = 268;
}
);
unicode = 108A7;
},
{
glyphname = u10880;
lastChange = "2018-02-05 21:34:13 +0000";
layers = (
{
layerId = UUID0;
paths = (
{
closed = 1;
nodes = (
"847 -100 OFFCURVE",
"855 -90 OFFCURVE",
"855 -61 CURVE SMOOTH",
"855 -37 OFFCURVE",
"842 -32 OFFCURVE",
"817 -28 CURVE SMOOTH",
"703 -11 LINE SMOOTH",
"544 13 OFFCURVE",
"501 31 OFFCURVE",
"426 363 CURVE SMOOTH",
"392 514 OFFCURVE",
"358 640 OFFCURVE",
"163 640 CURVE SMOOTH",
"115 640 OFFCURVE",
"91 637 OFFCURVE",
"91 599 CURVE SMOOTH",
"91 574 OFFCURVE",
"105 562 OFFCURVE",
"136 562 CURVE SMOOTH",
"282 562 OFFCURVE",
"303 525 OFFCURVE",
"339 360 CURVE SMOOTH",
"401 77 OFFCURVE",
"435 -41 OFFCURVE",
"620 -77 CURVE SMOOTH",
"663 -85 OFFCURVE",
"770 -100 OFFCURVE",
"810 -100 CURVE SMOOTH"
);
},
{
closed = 1;
nodes = (
"299 78 OFFCURVE",
"305 102 OFFCURVE",
"305 120 CURVE SMOOTH",
"305 139 OFFCURVE",
"299 144 OFFCURVE",
"288 148 CURVE SMOOTH",
"192 183 OFFCURVE",
"119 219 OFFCURVE",
"119 290 CURVE SMOOTH",
"119 322 OFFCURVE",
"138 333 OFFCURVE",
"198 334 CURVE SMOOTH",
"395 336 LINE SMOOTH",
"584 338 OFFCURVE",
"648 378 OFFCURVE",
"648 478 CURVE SMOOTH",
"648 509 OFFCURVE",
"642 553 OFFCURVE",
"635 579 CURVE SMOOTH",
"627 608 OFFCURVE",
"616 614 OFFCURVE",
"592 614 CURVE SMOOTH",
"561 614 OFFCURVE",
"552 604 OFFCURVE",
"552 590 CURVE SMOOTH",
"552 583 OFFCURVE",
"554 571 OFFCURVE",
"557 558 CURVE SMOOTH",
"562 537 OFFCURVE",
"567 510 OFFCURVE",
"567 492 CURVE SMOOTH",
"567 421 OFFCURVE",
"506 413 OFFCURVE",
"390 410 CURVE SMOOTH",
"182 405 LINE SMOOTH",
"78 403 OFFCURVE",
"30 366 OFFCURVE",
"30 289 CURVE SMOOTH",
"30 180 OFFCURVE",
"126 123 OFFCURVE",
"222 91 CURVE SMOOTH",
"243 84 OFFCURVE",
"263 78 OFFCURVE",
"275 78 CURVE SMOOTH"
);
}
);
width = 825;
}
);
unicode = 10880;
},
{
glyphname = u10881;
lastChange = "2018-02-05 21:34:13 +0000";
layers = (
{
layerId = UUID0;
paths = (
{
closed = 1;
nodes = (
"451 -10 OFFCURVE",
"480 99 OFFCURVE",
"480 204 CURVE SMOOTH",
"480 363 OFFCURVE",
"417 547 OFFCURVE",
"259 547 CURVE",
"323 600 OFFCURVE",
"377 661 OFFCURVE",
"377 700 CURVE SMOOTH",
"377 719 OFFCURVE",
"368 730 OFFCURVE",
"340 730 CURVE SMOOTH",
"320 730 OFFCURVE",
"308 721 OFFCURVE",
"296 706 CURVE SMOOTH",
"246 640 OFFCURVE",
"222 610 OFFCURVE",
"129 528 CURVE",
"80 498 OFFCURVE",
"60 456 OFFCURVE",
"60 366 CURVE SMOOTH",
"60 178 OFFCURVE",
"143 -10 OFFCURVE",
"301 -10 CURVE SMOOTH"
);
},
{
closed = 1;
nodes = (
"201 63 OFFCURVE",
"147 229 OFFCURVE",
"147 356 CURVE SMOOTH",
"147 433 OFFCURVE",
"182 473 OFFCURVE",
"240 473 CURVE SMOOTH",
"346 473 OFFCURVE",
"393 345 OFFCURVE",
"393 191 CURVE SMOOTH",
"393 125 OFFCURVE",
"374 63 OFFCURVE",
"300 63 CURVE SMOOTH"
);
}
);
width = 530;
}
);
unicode = 10881;
},
{
glyphname = u10882;
lastChange = "2018-02-05 21:34:13 +0000";
layers = (
{
layerId = UUID0;
paths = (
{
closed = 1;
nodes = (
"57 -10 OFFCURVE",
"72 -6 OFFCURVE",
"96 6 CURVE SMOOTH",
"128 22 OFFCURVE",
"176 33 OFFCURVE",
"210 33 CURVE SMOOTH",
"245 33 OFFCURVE",
"288 22 OFFCURVE",
"331 11 CURVE SMOOTH",
"372 0 OFFCURVE",
"412 -10 OFFCURVE",
"445 -10 CURVE SMOOTH",
"544 -10 OFFCURVE",
"580 50 OFFCURVE",
"589 150 CURVE SMOOTH",
"592 184 OFFCURVE",
"604 389 OFFCURVE",
"604 421 CURVE SMOOTH",
"604 547 OFFCURVE",
"560 592 OFFCURVE",
"470 592 CURVE SMOOTH",
"426 592 OFFCURVE",
"393 586 OFFCURVE",
"363 576 CURVE SMOOTH",
"341 569 OFFCURVE",
"320 563 OFFCURVE",
"299 563 CURVE SMOOTH",
"278 563 OFFCURVE",
"263 571 OFFCURVE",
"250 579 CURVE SMOOTH",
"242 584 OFFCURVE",
"235 588 OFFCURVE",
"229 588 CURVE SMOOTH",
"214 588 OFFCURVE",
"202 566 OFFCURVE",
"202 549 CURVE SMOOTH",
"202 545 OFFCURVE",
"203 537 OFFCURVE",
"206 532 CURVE SMOOTH",
"225 502 OFFCURVE",
"256 492 OFFCURVE",
"290 492 CURVE SMOOTH",
"315 492 OFFCURVE",
"337 496 OFFCURVE",
"362 503 CURVE SMOOTH",
"389 511 OFFCURVE",
"417 518 OFFCURVE",
"447 518 CURVE SMOOTH",
"504 518 OFFCURVE",
"516 489 OFFCURVE",
"516 410 CURVE SMOOTH",
"516 383 OFFCURVE",
"504 182 OFFCURVE",
"501 147 CURVE SMOOTH",
"495 82 OFFCURVE",
"472 63 OFFCURVE",
"434 63 CURVE SMOOTH",
"401 63 OFFCURVE",
"372 72 OFFCURVE",
"340 82 CURVE SMOOTH",
"301 94 OFFCURVE",
"260 106 OFFCURVE",
"204 106 CURVE SMOOTH",
"113 106 OFFCURVE",
"10 70 OFFCURVE",
"10 27 CURVE SMOOTH",
"10 0 OFFCURVE",
"24 -10 OFFCURVE",
"45 -10 CURVE SMOOTH"
);
}
);
width = 694;
}
);
leftMetricsKey = u1089B;
rightMetricsKey = u108A7;
unicode = 10882;
},
{
glyphname = u10883;
lastChange = "2018-02-05 21:34:13 +0000";
layers = (
{
layerId = UUID0;
paths = (
{
closed = 1;
nodes = (
"473 -10 OFFCURVE",
"490 182 OFFCURVE",
"496 369 CURVE SMOOTH",
"498 432 OFFCURVE",
"500 525 OFFCURVE",
"500 570 CURVE SMOOTH",
"500 597 OFFCURVE",
"483 604 OFFCURVE",
"460 604 CURVE SMOOTH",
"434 604 OFFCURVE",
"415 599 OFFCURVE",
"414 570 CURVE SMOOTH",
"413 549 OFFCURVE",
"411 433 OFFCURVE",
"410 364 CURVE SMOOTH",
"407 199 OFFCURVE",
"390 70 OFFCURVE",
"268 70 CURVE SMOOTH",
"194 70 OFFCURVE",
"60 125 OFFCURVE",
"37 125 CURVE SMOOTH",
"18 125 OFFCURVE",
"10 103 OFFCURVE",
"10 83 CURVE SMOOTH",
"10 66 OFFCURVE",
"12 54 OFFCURVE",
"33 46 CURVE SMOOTH",
"78 28 OFFCURVE",
"198 -10 OFFCURVE",
"278 -10 CURVE SMOOTH"
);
}
);
width = 590;
}
);
leftMetricsKey = u1089B;
rightMetricsKey = u108A7;
unicode = 10883;
},
{
glyphname = u10884;
lastChange = "2018-02-05 21:34:13 +0000";
layers = (
{
layerId = UUID0;
paths = (
{
closed = 1;
nodes = (
"679 66 OFFCURVE",
"692 77 OFFCURVE",
"692 95 CURVE SMOOTH",
"692 170 OFFCURVE",
"258 620 OFFCURVE",
"187 620 CURVE SMOOTH",
"160 620 OFFCURVE",
"147 595 OFFCURVE",
"147 578 CURVE SMOOTH",
"147 567 OFFCURVE",
"152 556 OFFCURVE",
"165 547 CURVE SMOOTH",
"293 457 OFFCURVE",
"534 199 OFFCURVE",
"609 95 CURVE SMOOTH",
"625 73 OFFCURVE",
"636 66 OFFCURVE",
"656 66 CURVE SMOOTH"
);
},
{
closed = 1;
nodes = (
"79 239 OFFCURVE",
"115 242 OFFCURVE",
"157 247 CURVE SMOOTH",
"216 254 OFFCURVE",
"281 257 OFFCURVE",
"335 257 CURVE SMOOTH",
"372 257 OFFCURVE",
"452 252 OFFCURVE",
"500 244 CURVE",
"442 328 LINE",
"411 331 OFFCURVE",
"332 336 OFFCURVE",
"300 336 CURVE SMOOTH",
"187 336 OFFCURVE",
"79 322 OFFCURVE",
"46 314 CURVE SMOOTH",
"16 307 OFFCURVE",
"10 296 OFFCURVE",
"10 278 CURVE SMOOTH",
"10 244 OFFCURVE",
"30 239 OFFCURVE",
"62 239 CURVE SMOOTH"
);
}
);
width = 692;
}
);
leftMetricsKey = u1089B;
unicode = 10884;
},
{
glyphname = u10885;
lastChange = "2018-02-05 21:34:13 +0000";
layers = (
{
layerId = UUID0;
paths = (
{
closed = 1;
nodes = (
"345 -10 OFFCURVE",
"350 5 OFFCURVE",
"350 41 CURVE SMOOTH",
"350 561 LINE SMOOTH",
"350 618 OFFCURVE",
"331 635 OFFCURVE",
"290 635 CURVE SMOOTH",
"272 635 OFFCURVE",
"255 630 OFFCURVE",
"235 623 CURVE SMOOTH",
"211 614 OFFCURVE",
"185 606 OFFCURVE",
"153 606 CURVE SMOOTH",
"113 606 OFFCURVE",
"91 618 OFFCURVE",
"73 629 CURVE SMOOTH",
"62 636 OFFCURVE",
"53 640 OFFCURVE",
"43 640 CURVE SMOOTH",
"20 640 OFFCURVE",
"10 627 OFFCURVE",
"10 604 CURVE SMOOTH",
"10 564 OFFCURVE",
"73 523 OFFCURVE",
"139 523 CURVE SMOOTH",
"171 523 OFFCURVE",
"186 527 OFFCURVE",
"203 533 CURVE SMOOTH",
"217 538 OFFCURVE",
"226 540 OFFCURVE",
"235 540 CURVE SMOOTH",
"257 540 OFFCURVE",
"262 525 OFFCURVE",
"262 495 CURVE SMOOTH",
"262 41 LINE SMOOTH",
"262 5 OFFCURVE",
"268 -10 OFFCURVE",
"307 -10 CURVE SMOOTH"
);
}
);
width = 440;
}
);
leftMetricsKey = u1089B;
rightMetricsKey = u108A7;
unicode = 10885;
},
{
glyphname = u10886;
lastChange = "2018-02-05 21:34:13 +0000";
layers = (
{
layerId = UUID0;
paths = (
{
closed = 1;
nodes = (
"357 -10 OFFCURVE",
"436 53 OFFCURVE",
"436 251 CURVE SMOOTH",
"436 338 OFFCURVE",
"419 423 OFFCURVE",
"401 503 CURVE SMOOTH",
"387 566 OFFCURVE",
"373 646 OFFCURVE",
"373 674 CURVE SMOOTH",
"373 698 OFFCURVE",
"364 704 OFFCURVE",
"335 704 CURVE SMOOTH",
"308 704 OFFCURVE",
"296 696 OFFCURVE",
"296 680 CURVE SMOOTH",
"296 656 OFFCURVE",
"298 635 OFFCURVE",
"301 615 CURVE",
"253 606 OFFCURVE",
"191 602 OFFCURVE",
"130 602 CURVE SMOOTH",
"110 602 OFFCURVE",
"94 602 OFFCURVE",
"79 604 CURVE SMOOTH",
"64 606 OFFCURVE",
"53 607 OFFCURVE",
"42 607 CURVE SMOOTH",
"21 607 OFFCURVE",
"10 598 OFFCURVE",
"10 575 CURVE SMOOTH",
"10 540 OFFCURVE",
"33 533 OFFCURVE",
"92 530 CURVE",
"75 454 OFFCURVE",
"50 338 OFFCURVE",
"50 228 CURVE SMOOTH",
"50 119 OFFCURVE",
"79 -10 OFFCURVE",
"235 -10 CURVE SMOOTH"
);
},
{
closed = 1;
nodes = (
"156 63 OFFCURVE",
"140 138 OFFCURVE",
"140 246 CURVE SMOOTH",
"140 328 OFFCURVE",
"158 457 OFFCURVE",
"173 530 CURVE",
"219 532 OFFCURVE",
"270 537 OFFCURVE",
"308 544 CURVE",
"335 439 OFFCURVE",
"347 361 OFFCURVE",
"347 253 CURVE SMOOTH",
"347 112 OFFCURVE",
"316 63 OFFCURVE",
"237 63 CURVE SMOOTH"
);
}
);
width = 524;
}
);
leftMetricsKey = u1089B;
unicode = 10886;
},
{
glyphname = u10887;
lastChange = "2018-02-05 21:34:13 +0000";
layers = (
{
layerId = UUID0;
paths = (
{
closed = 1;
nodes = (
"482 -10 OFFCURVE",
"487 5 OFFCURVE",
"487 41 CURVE SMOOTH",
"487 179 LINE SMOOTH",
"487 310 OFFCURVE",
"468 411 OFFCURVE",
"450 499 CURVE SMOOTH",
"437 565 OFFCURVE",
"427 623 OFFCURVE",
"427 680 CURVE SMOOTH",
"427 702 OFFCURVE",
"412 704 OFFCURVE",
"388 704 CURVE SMOOTH",
"361 704 OFFCURVE",
"346 702 OFFCURVE",
"346 680 CURVE SMOOTH",
"346 650 OFFCURVE",
"347 629 OFFCURVE",
"349 605 CURVE",
"288 596 OFFCURVE",
"215 592 OFFCURVE",
"152 592 CURVE SMOOTH",
"117 592 OFFCURVE",
"88 592 OFFCURVE",
"65 595 CURVE SMOOTH",
"49 597 OFFCURVE",
"42 597 OFFCURVE",
"35 597 CURVE SMOOTH",
"19 597 OFFCURVE",
"10 583 OFFCURVE",
"10 559 CURVE SMOOTH",
"10 522 OFFCURVE",
"40 519 OFFCURVE",
"127 515 CURVE",
"133 483 OFFCURVE",
"138 438 OFFCURVE",
"138 384 CURVE SMOOTH",
"138 311 OFFCURVE",
"129 235 OFFCURVE",
"115 174 CURVE SMOOTH",
"103 122 OFFCURVE",
"96 90 OFFCURVE",
"96 69 CURVE SMOOTH",
"96 43 OFFCURVE",
"108 33 OFFCURVE",
"138 33 CURVE SMOOTH",
"161 33 OFFCURVE",
"180 46 OFFCURVE",
"188 84 CURVE SMOOTH",
"206 168 OFFCURVE",
"221 293 OFFCURVE",
"221 380 CURVE SMOOTH",
"221 431 OFFCURVE",
"217 493 OFFCURVE",
"213 517 CURVE",
"262 519 OFFCURVE",
"319 524 OFFCURVE",
"357 530 CURVE",
"379 442 OFFCURVE",
"399 329 OFFCURVE",
"399 203 CURVE SMOOTH",
"399 41 LINE SMOOTH",
"399 5 OFFCURVE",
"405 -10 OFFCURVE",
"444 -10 CURVE SMOOTH"
);
}
);
width = 581;
}
);
leftMetricsKey = u1089B;
unicode = 10887;
},
{
glyphname = u10888;
lastChange = "2018-02-05 21:34:13 +0000";
layers = (
{
layerId = UUID0;
paths = (
{
closed = 1;
nodes = (
"313 -10 OFFCURVE",
"318 5 OFFCURVE",
"318 41 CURVE SMOOTH",
"318 492 LINE SMOOTH",
"318 602 OFFCURVE",
"261 640 OFFCURVE",
"185 640 CURVE SMOOTH",
"85 640 OFFCURVE",
"40 577 OFFCURVE",
"40 509 CURVE SMOOTH",
"40 438 OFFCURVE",
"80 378 OFFCURVE",
"140 378 CURVE SMOOTH",
"168 378 OFFCURVE",
"180 393 OFFCURVE",
"180 416 CURVE SMOOTH",
"180 432 OFFCURVE",
"175 442 OFFCURVE",
"160 452 CURVE SMOOTH",
"144 462 OFFCURVE",
"128 481 OFFCURVE",
"128 511 CURVE SMOOTH",
"128 545 OFFCURVE",
"147 566 OFFCURVE",
"182 566 CURVE SMOOTH",
"212 566 OFFCURVE",
"230 549 OFFCURVE",
"230 496 CURVE SMOOTH",
"230 41 LINE SMOOTH",
"230 5 OFFCURVE",
"236 -10 OFFCURVE",
"275 -10 CURVE SMOOTH"
);
}
);
width = 408;
}
);
rightMetricsKey = u108A7;
unicode = 10888;
},
{
glyphname = u10889;
lastChange = "2018-02-05 21:34:13 +0000";
layers = (
{
layerId = UUID0;
paths = (
{
closed = 1;
nodes = (
"173 -61 OFFCURVE",
"178 -46 OFFCURVE",
"178 -10 CURVE SMOOTH",
"178 596 LINE SMOOTH",
"178 627 OFFCURVE",
"171 640 OFFCURVE",
"133 640 CURVE SMOOTH",
"95 640 OFFCURVE",
"90 625 OFFCURVE",
"90 596 CURVE SMOOTH",
"90 -10 LINE SMOOTH",
"90 -46 OFFCURVE",
"96 -61 OFFCURVE",
"135 -61 CURVE SMOOTH"
);
}
);
width = 268;
}
);
leftMetricsKey = u108A7;
rightMetricsKey = u108A7;
unicode = 10889;
},
{
glyphname = u1088A;
lastChange = "2018-02-05 21:34:13 +0000";
layers = (
{
layerId = UUID0;
paths = (
{
closed = 1;
nodes = (
"313 -10 OFFCURVE",
"315 97 OFFCURVE",
"315 193 CURVE SMOOTH",
"315 548 LINE SMOOTH",
"315 585 OFFCURVE",
"309 600 OFFCURVE",
"270 600 CURVE SMOOTH",
"232 600 OFFCURVE",
"227 584 OFFCURVE",
"227 548 CURVE SMOOTH",
"227 213 LINE SMOOTH",
"227 120 OFFCURVE",
"223 68 OFFCURVE",
"166 68 CURVE SMOOTH",
"140 68 OFFCURVE",
"108 80 OFFCURVE",
"84 92 CURVE SMOOTH",
"66 101 OFFCURVE",
"52 106 OFFCURVE",
"43 106 CURVE SMOOTH",
"23 106 OFFCURVE",
"10 80 OFFCURVE",
"10 62 CURVE SMOOTH",
"10 47 OFFCURVE",
"16 41 OFFCURVE",
"25 35 CURVE SMOOTH",
"52 17 OFFCURVE",
"102 -10 OFFCURVE",
"171 -10 CURVE SMOOTH"
);
},
{
closed = 1;
nodes = (
"611 -10 OFFCURVE",
"616 5 OFFCURVE",
"616 41 CURVE SMOOTH",
"616 588 LINE SMOOTH",
"616 625 OFFCURVE",
"610 640 OFFCURVE",
"571 640 CURVE SMOOTH",
"533 640 OFFCURVE",
"528 624 OFFCURVE",
"528 588 CURVE SMOOTH",
"528 41 LINE SMOOTH",
"528 5 OFFCURVE",
"534 -10 OFFCURVE",
"573 -10 CURVE SMOOTH"
);
},
{
closed = 1;
nodes = (
"381 449 LINE SMOOTH",
"396 460 OFFCURVE",
"407 468 OFFCURVE",
"420 468 CURVE SMOOTH",
"435 468 OFFCURVE",
"447 460 OFFCURVE",
"463 448 CURVE SMOOTH",
"552 382 LINE",
"552 475 LINE",
"467 531 LINE SMOOTH",
"451 542 OFFCURVE",
"437 550 OFFCURVE",
"422 550 CURVE SMOOTH",
"405 550 OFFCURVE",
"392 542 OFFCURVE",
"376 531 CURVE SMOOTH",
"291 471 LINE",
"291 382 LINE"
);
}
);
width = 706;
}
);
leftMetricsKey = u1089B;
rightMetricsKey = u108A7;
unicode = 1088A;
},
{
glyphname = u1088B;
lastChange = "2018-02-05 21:34:13 +0000";
layers = (
{
layerId = UUID0;
paths = (
{
closed = 1;
nodes = (
"472 -10 OFFCURVE",
"711 174 OFFCURVE",
"711 378 CURVE SMOOTH",
"711 451 OFFCURVE",
"659 486 OFFCURVE",
"580 486 CURVE SMOOTH",
"445 486 OFFCURVE",
"328 405 OFFCURVE",
"250 321 CURVE SMOOTH",
"237 307 OFFCURVE",
"230 294 OFFCURVE",
"230 277 CURVE SMOOTH",
"230 252 OFFCURVE",
"247 242 OFFCURVE",
"263 242 CURVE SMOOTH",
"282 242 OFFCURVE",
"291 250 OFFCURVE",
"300 258 CURVE SMOOTH",
"365 322 OFFCURVE",
"458 411 OFFCURVE",
"561 411 CURVE SMOOTH",
"606 411 OFFCURVE",
"625 391 OFFCURVE",
"625 355 CURVE SMOOTH",
"625 251 OFFCURVE",
"440 68 OFFCURVE",
"297 68 CURVE SMOOTH",
"205 68 OFFCURVE",
"178 118 OFFCURVE",
"178 348 CURVE SMOOTH",
"178 382 OFFCURVE",
"181 446 OFFCURVE",
"184 499 CURVE SMOOTH",
"186 530 OFFCURVE",
"187 552 OFFCURVE",
"187 566 CURVE SMOOTH",
"187 588 OFFCURVE",
"166 592 OFFCURVE",
"149 592 CURVE SMOOTH",
"109 592 OFFCURVE",
"102 581 OFFCURVE",
"100 561 CURVE SMOOTH",
"95 511 OFFCURVE",
"90 405 OFFCURVE",
"90 351 CURVE SMOOTH",
"90 92 OFFCURVE",
"132 -10 OFFCURVE",
"289 -10 CURVE SMOOTH"
);
}
);
width = 761;
}
);
unicode = 1088B;
},
{
glyphname = u1088C;
lastChange = "2018-02-05 21:34:13 +0000";
layers = (
{
layerId = UUID0;
paths = (
{
closed = 1;
nodes = (
"327 -10 OFFCURVE",
"333 5 OFFCURVE",
"333 41 CURVE SMOOTH",
"333 76 LINE SMOOTH",
"333 168 OFFCURVE",
"287 213 OFFCURVE",
"241 258 CURVE SMOOTH",
"194 303 OFFCURVE",
"148 349 OFFCURVE",
"148 444 CURVE SMOOTH",
"148 518 OFFCURVE",
"199 565 OFFCURVE",
"262 565 CURVE SMOOTH",
"322 565 OFFCURVE",
"358 535 OFFCURVE",
"371 482 CURVE SMOOTH",
"376 461 OFFCURVE",
"391 461 OFFCURVE",
"404 461 CURVE SMOOTH",
"425 461 OFFCURVE",
"431 468 OFFCURVE",
"436 487 CURVE SMOOTH",
"445 523 OFFCURVE",
"459 555 OFFCURVE",
"475 583 CURVE SMOOTH",
"491 611 OFFCURVE",
"503 634 OFFCURVE",
"503 653 CURVE SMOOTH",
"503 670 OFFCURVE",
"490 685 OFFCURVE",
"465 685 CURVE SMOOTH",
"451 685 OFFCURVE",
"444 680 OFFCURVE",
"433 664 CURVE SMOOTH",
"419 644 OFFCURVE",
"404 612 OFFCURVE",
"392 578 CURVE",
"374 606 OFFCURVE",
"326 640 OFFCURVE",
"253 640 CURVE SMOOTH",
"139 640 OFFCURVE",
"60 548 OFFCURVE",
"60 432 CURVE SMOOTH",
"60 327 OFFCURVE",
"118 264 OFFCURVE",
"169 211 CURVE SMOOTH",
"210 169 OFFCURVE",
"245 130 OFFCURVE",
"245 75 CURVE SMOOTH",
"245 41 LINE SMOOTH",
"245 5 OFFCURVE",
"250 -10 OFFCURVE",
"289 -10 CURVE SMOOTH"
);
}
);
width = 531;
}
);
leftMetricsKey = u1088D;
unicode = 1088C;
},
{
glyphname = u1088D;
lastChange = "2018-02-05 21:34:13 +0000";
layers = (
{
layerId = UUID0;
paths = (
{
closed = 1;
nodes = (
"269 -10 OFFCURVE",
"275 5 OFFCURVE",
"275 41 CURVE SMOOTH",
"275 76 LINE SMOOTH",
"275 146 OFFCURVE",
"247 197 OFFCURVE",
"216 251 CURVE SMOOTH",
"181 312 OFFCURVE",
"148 372 OFFCURVE",
"148 457 CURVE SMOOTH",
"148 527 OFFCURVE",
"194 565 OFFCURVE",
"245 565 CURVE SMOOTH",
"278 565 OFFCURVE",
"310 551 OFFCURVE",
"331 539 CURVE SMOOTH",
"339 535 OFFCURVE",
"347 533 OFFCURVE",
"353 533 CURVE SMOOTH",
"378 533 OFFCURVE",
"389 561 OFFCURVE",
"389 574 CURVE SMOOTH",
"389 579 OFFCURVE",
"388 587 OFFCURVE",
"382 593 CURVE SMOOTH",
"360 615 OFFCURVE",
"305 640 OFFCURVE",
"238 640 CURVE SMOOTH",
"136 640 OFFCURVE",
"60 573 OFFCURVE",
"60 457 CURVE SMOOTH",
"60 376 OFFCURVE",
"97 304 OFFCURVE",
"131 238 CURVE SMOOTH",
"160 182 OFFCURVE",
"187 129 OFFCURVE",
"187 74 CURVE SMOOTH",
"187 41 LINE SMOOTH",
"187 5 OFFCURVE",
"192 -10 OFFCURVE",
"231 -10 CURVE SMOOTH"
);
}
);
width = 429;
}
);
unicode = 1088D;
},
{
glyphname = u1088E;
lastChange = "2018-02-05 21:34:13 +0000";
layers = (
{
layerId = UUID0;
paths = (
{
closed = 1;
nodes = (
"344 -163 OFFCURVE",
"350 -148 OFFCURVE",
"350 -112 CURVE SMOOTH",
"350 561 LINE SMOOTH",
"350 618 OFFCURVE",
"331 635 OFFCURVE",
"290 635 CURVE SMOOTH",
"272 635 OFFCURVE",
"255 630 OFFCURVE",
"235 623 CURVE SMOOTH",
"211 614 OFFCURVE",
"185 606 OFFCURVE",
"153 606 CURVE SMOOTH",
"113 606 OFFCURVE",
"91 618 OFFCURVE",
"73 629 CURVE SMOOTH",
"62 636 OFFCURVE",
"53 640 OFFCURVE",
"43 640 CURVE SMOOTH",
"20 640 OFFCURVE",
"10 627 OFFCURVE",
"10 604 CURVE SMOOTH",
"10 564 OFFCURVE",
"73 523 OFFCURVE",
"139 523 CURVE SMOOTH",
"171 523 OFFCURVE",
"186 527 OFFCURVE",
"203 533 CURVE SMOOTH",
"217 538 OFFCURVE",
"226 540 OFFCURVE",
"235 540 CURVE SMOOTH",
"257 540 OFFCURVE",
"262 525 OFFCURVE",
"262 495 CURVE SMOOTH",
"262 -112 LINE SMOOTH",
"262 -148 OFFCURVE",
"267 -163 OFFCURVE",
"306 -163 CURVE SMOOTH"
);
}
);
width = 440;
}
);
leftMetricsKey = u10885;
rightMetricsKey = u108A7;
unicode = 1088E;
},
{
glyphname = u1088F;
lastChange = "2018-02-05 21:34:13 +0000";
layers = (
{
layerId = UUID0;
paths = (
{
closed = 1;
nodes = (
"231 -6 OFFCURVE",
"291 -2 OFFCURVE",
"335 5 CURVE SMOOTH",
"386 13 OFFCURVE",
"416 38 OFFCURVE",
"416 110 CURVE SMOOTH",
"416 561 LINE SMOOTH",
"416 618 OFFCURVE",
"397 635 OFFCURVE",
"356 635 CURVE SMOOTH",
"338 635 OFFCURVE",
"321 630 OFFCURVE",
"301 623 CURVE SMOOTH",
"277 614 OFFCURVE",
"251 606 OFFCURVE",
"219 606 CURVE SMOOTH",
"179 606 OFFCURVE",
"157 618 OFFCURVE",
"139 629 CURVE SMOOTH",
"128 636 OFFCURVE",
"119 640 OFFCURVE",
"109 640 CURVE SMOOTH",
"86 640 OFFCURVE",
"76 627 OFFCURVE",
"76 604 CURVE SMOOTH",
"76 564 OFFCURVE",
"139 523 OFFCURVE",
"205 523 CURVE SMOOTH",
"228 523 OFFCURVE",
"244 524 OFFCURVE",
"266 530 CURVE SMOOTH",
"280 534 OFFCURVE",
"292 537 OFFCURVE",
"301 537 CURVE SMOOTH",
"323 537 OFFCURVE",
"328 522 OFFCURVE",
"328 495 CURVE SMOOTH",
"328 124 LINE SMOOTH",
"328 87 OFFCURVE",
"318 85 OFFCURVE",
"291 80 CURVE SMOOTH",
"264 75 OFFCURVE",
"213 71 OFFCURVE",
"160 71 CURVE SMOOTH",
"135 71 OFFCURVE",
"94 74 OFFCURVE",
"68 76 CURVE SMOOTH",
"56 77 OFFCURVE",
"43 78 OFFCURVE",
"36 78 CURVE SMOOTH",
"16 78 OFFCURVE",
"10 56 OFFCURVE",
"10 38 CURVE SMOOTH",
"10 25 OFFCURVE",
"11 6 OFFCURVE",
"36 2 CURVE SMOOTH",
"74 -4 OFFCURVE",
"104 -6 OFFCURVE",
"167 -6 CURVE SMOOTH"
);
}
);
width = 506;
}
);
leftMetricsKey = u10885;
rightMetricsKey = u108A7;
unicode = 1088F;
},
{
glyphname = u10894;
lastChange = "2018-02-05 21:34:13 +0000";
layers = (
{
layerId = UUID0;
paths = (
{
closed = 1;
nodes = (
"234 -163 OFFCURVE",
"239 -148 OFFCURVE",
"239 -112 CURVE SMOOTH",
"239 515 LINE SMOOTH",
"239 560 OFFCURVE",
"229 588 OFFCURVE",
"171 607 CURVE SMOOTH",
"108 628 OFFCURVE",
"63 640 OFFCURVE",
"40 640 CURVE SMOOTH",
"21 640 OFFCURVE",
"10 625 OFFCURVE",
"10 599 CURVE SMOOTH",
"10 568 OFFCURVE",
"21 559 OFFCURVE",
"42 552 CURVE SMOOTH",
"140 519 OFFCURVE",
"151 515 OFFCURVE",
"151 466 CURVE SMOOTH",
"151 -112 LINE SMOOTH",
"151 -148 OFFCURVE",
"157 -163 OFFCURVE",
"196 -163 CURVE SMOOTH"
);
}
);
width = 329;
}
);
leftMetricsKey = u10885;
rightMetricsKey = u108A7;
unicode = 10894;
},
{
glyphname = u10895;
lastChange = "2018-02-05 21:34:13 +0000";
layers = (
{
layerId = UUID0;
paths = (
{
closed = 1;
nodes = (
"179 -7 OFFCURVE",
"217 -6 OFFCURVE",
"261 1 CURVE SMOOTH",
"314 9 OFFCURVE",
"335 27 OFFCURVE",
"335 82 CURVE SMOOTH",
"335 110 OFFCURVE",
"303 602 OFFCURVE",
"301 619 CURVE SMOOTH",
"299 640 OFFCURVE",
"280 640 OFFCURVE",
"256 640 CURVE SMOOTH",
"228 640 OFFCURVE",
"216 633 OFFCURVE",
"216 612 CURVE SMOOTH",
"216 593 OFFCURVE",
"222 506 OFFCURVE",
"230 404 CURVE SMOOTH",
"241 270 OFFCURVE",
"251 147 OFFCURVE",
"251 117 CURVE SMOOTH",
"251 76 OFFCURVE",
"209 73 OFFCURVE",
"132 73 CURVE SMOOTH",
"116 73 OFFCURVE",
"96 74 OFFCURVE",
"75 77 CURVE SMOOTH",
"61 79 OFFCURVE",
"51 80 OFFCURVE",
"43 80 CURVE SMOOTH",
"20 80 OFFCURVE",
"10 67 OFFCURVE",
"10 40 CURVE SMOOTH",
"10 24 OFFCURVE",
"15 5 OFFCURVE",
"45 0 CURVE SMOOTH",
"60 -3 OFFCURVE",
"84 -7 OFFCURVE",
"147 -7 CURVE SMOOTH"
);
}
);
width = 425;
}
);
leftMetricsKey = u10885;
rightMetricsKey = u10885;
unicode = 10895;
},
{
glyphname = u10890;
lastChange = "2018-02-05 21:34:13 +0000";
layers = (
{
layerId = UUID0;
paths = (
{
closed = 1;
nodes = (
"226 -10 OFFCURVE",
"245 0 OFFCURVE",
"264 11 CURVE SMOOTH",
"372 74 OFFCURVE",
"468 156 OFFCURVE",
"468 247 CURVE SMOOTH",
"468 325 OFFCURVE",
"426 363 OFFCURVE",
"352 363 CURVE SMOOTH",
"304 363 OFFCURVE",
"256 334 OFFCURVE",
"222 311 CURVE SMOOTH",
"178 282 LINE",
"178 589 LINE SMOOTH",
"178 625 OFFCURVE",
"172 640 OFFCURVE",
"133 640 CURVE SMOOTH",
"95 640 OFFCURVE",
"90 625 OFFCURVE",
"90 589 CURVE SMOOTH",
"90 229 LINE SMOOTH",
"90 191 OFFCURVE",
"110 181 OFFCURVE",
"132 181 CURVE SMOOTH",
"156 181 OFFCURVE",
"170 187 OFFCURVE",
"193 202 CURVE SMOOTH",
"279 259 LINE SMOOTH",
"305 276 OFFCURVE",
"326 283 OFFCURVE",
"341 283 CURVE SMOOTH",
"366 283 OFFCURVE",
"378 267 OFFCURVE",
"378 239 CURVE SMOOTH",
"378 171 OFFCURVE",
"275 110 OFFCURVE",
"173 50 CURVE SMOOTH",
"165 45 OFFCURVE",
"160 41 OFFCURVE",
"160 29 CURVE SMOOTH",
"160 14 OFFCURVE",
"173 -10 OFFCURVE",
"206 -10 CURVE SMOOTH"
);
}
);
width = 508;
}
);
leftMetricsKey = u108A7;
unicode = 10890;
},
{
glyphname = u10891;
lastChange = "2018-02-05 21:34:13 +0000";
layers = (
{
layerId = UUID0;
paths = (
{
closed = 1;
nodes = (
"213 -57 OFFCURVE",
"245 -1 OFFCURVE",
"245 91 CURVE SMOOTH",
"245 589 LINE SMOOTH",
"245 625 OFFCURVE",
"239 640 OFFCURVE",
"200 640 CURVE SMOOTH",
"162 640 OFFCURVE",
"157 625 OFFCURVE",
"157 589 CURVE SMOOTH",
"157 112 LINE SMOOTH",
"157 65 OFFCURVE",
"152 16 OFFCURVE",
"107 16 CURVE SMOOTH",
"90 16 OFFCURVE",
"78 19 OFFCURVE",
"67 26 CURVE SMOOTH",
"59 31 OFFCURVE",
"49 37 OFFCURVE",
"37 37 CURVE SMOOTH",
"18 37 OFFCURVE",
"10 25 OFFCURVE",
"10 1 CURVE SMOOTH",
"10 -41 OFFCURVE",
"57 -57 OFFCURVE",
"109 -57 CURVE SMOOTH"
);
}
);
width = 335;
}
);
leftMetricsKey = u10885;
rightMetricsKey = u108A7;
unicode = 10891;
},
{
glyphname = u10892;
lastChange = "2018-02-05 21:34:13 +0000";
layers = (
{
layerId = UUID0;
paths = (
{
closed = 1;
nodes = (
"338 -10 OFFCURVE",
"458 58 OFFCURVE",
"458 343 CURVE SMOOTH",
"458 467 OFFCURVE",
"441 627 OFFCURVE",
"342 627 CURVE SMOOTH",
"315 627 OFFCURVE",
"291 620 OFFCURVE",
"267 613 CURVE SMOOTH",
"240 605 OFFCURVE",
"213 597 OFFCURVE",
"179 597 CURVE SMOOTH",
"153 597 OFFCURVE",
"130 609 OFFCURVE",
"112 622 CURVE SMOOTH",
"95 634 OFFCURVE",
"83 640 OFFCURVE",
"71 640 CURVE SMOOTH",
"54 640 OFFCURVE",
"40 619 OFFCURVE",
"40 604 CURVE SMOOTH",
"40 600 OFFCURVE",
"42 594 OFFCURVE",
"45 589 CURVE SMOOTH",
"71 546 OFFCURVE",
"114 522 OFFCURVE",
"177 522 CURVE SMOOTH",
"208 522 OFFCURVE",
"227 527 OFFCURVE",
"249 535 CURVE SMOOTH",
"272 543 OFFCURVE",
"284 545 OFFCURVE",
"300 545 CURVE SMOOTH",
"355 545 OFFCURVE",
"369 471 OFFCURVE",
"369 348 CURVE SMOOTH",
"369 115 OFFCURVE",
"299 63 OFFCURVE",
"246 63 CURVE SMOOTH",
"206 63 OFFCURVE",
"174 88 OFFCURVE",
"174 170 CURVE SMOOTH",
"174 207 OFFCURVE",
"180 289 OFFCURVE",
"188 371 CURVE SMOOTH",
"196 452 OFFCURVE",
"202 533 OFFCURVE",
"202 569 CURVE",
"117 569 LINE",
"117 495 OFFCURVE",
"114 454 OFFCURVE",
"103 364 CURVE SMOOTH",
"95 298 OFFCURVE",
"87 231 OFFCURVE",
"87 178 CURVE SMOOTH",
"87 45 OFFCURVE",
"149 -10 OFFCURVE",
"244 -10 CURVE SMOOTH"
);
}
);
width = 528;
}
);
unicode = 10892;
},
{
glyphname = u10893;
lastChange = "2018-02-05 21:34:13 +0000";
layers = (
{
layerId = UUID0;
paths = (
{
closed = 1;
nodes = (
"324 -10 OFFCURVE",
"404 41 OFFCURVE",
"404 325 CURVE SMOOTH",
"404 439 OFFCURVE",
"397 620 OFFCURVE",
"281 620 CURVE SMOOTH",
"241 620 OFFCURVE",
"187 602 OFFCURVE",
"138 585 CURVE",
"121 626 OFFCURVE",
"94 661 OFFCURVE",
"64 661 CURVE SMOOTH",
"46 661 OFFCURVE",
"20 633 OFFCURVE",
"20 619 CURVE SMOOTH",
"20 610 OFFCURVE",
"24 605 OFFCURVE",
"30 598 CURVE SMOOTH",
"48 579 OFFCURVE",
"81 543 OFFCURVE",
"81 475 CURVE SMOOTH",
"81 435 OFFCURVE",
"60 410 OFFCURVE",
"45 393 CURVE SMOOTH",
"35 382 OFFCURVE",
"31 377 OFFCURVE",
"31 370 CURVE SMOOTH",
"31 352 OFFCURVE",
"64 327 OFFCURVE",
"77 327 CURVE SMOOTH",
"109 327 OFFCURVE",
"161 390 OFFCURVE",
"161 477 CURVE SMOOTH",
"161 490 OFFCURVE",
"160 502 OFFCURVE",
"157 515 CURVE",
"200 531 OFFCURVE",
"230 541 OFFCURVE",
"254 541 CURVE SMOOTH",
"310 541 OFFCURVE",
"314 446 OFFCURVE",
"314 330 CURVE SMOOTH",
"314 115 OFFCURVE",
"284 63 OFFCURVE",
"234 63 CURVE SMOOTH",
"187 63 OFFCURVE",
"167 94 OFFCURVE",
"150 121 CURVE SMOOTH",
"136 143 OFFCURVE",
"126 149 OFFCURVE",
"106 149 CURVE SMOOTH",
"85 149 OFFCURVE",
"74 138 OFFCURVE",
"74 117 CURVE SMOOTH",
"74 52 OFFCURVE",
"152 -10 OFFCURVE",
"232 -10 CURVE SMOOTH"
);
}
);
width = 474;
}
);
rightMetricsKey = u10892;
unicode = 10893;
},
{
glyphname = u108A9;
lastChange = "2018-02-05 21:34:13 +0000";
layers = (
{
layerId = UUID0;
paths = (
{
closed = 1;
nodes = (
"278 -10 OFFCURVE",
"315 5 OFFCURVE",
"341 48 CURVE",
"316 48 LINE",
"339 5 OFFCURVE",
"375 -10 OFFCURVE",
"422 -10 CURVE SMOOTH",
"514 -10 OFFCURVE",
"565 23 OFFCURVE",
"565 132 CURVE SMOOTH",
"565 589 LINE SMOOTH",
"565 625 OFFCURVE",
"560 640 OFFCURVE",
"521 640 CURVE SMOOTH",
"483 640 OFFCURVE",
"480 625 OFFCURVE",
"480 589 CURVE SMOOTH",
"480 130 LINE SMOOTH",
"480 78 OFFCURVE",
"454 65 OFFCURVE",
"425 65 CURVE SMOOTH",
"394 65 OFFCURVE",
"370 78 OFFCURVE",
"370 130 CURVE SMOOTH",
"370 589 LINE SMOOTH",
"370 625 OFFCURVE",
"366 640 OFFCURVE",
"327 640 CURVE SMOOTH",
"289 640 OFFCURVE",
"285 625 OFFCURVE",
"285 589 CURVE SMOOTH",
"285 130 LINE SMOOTH",
"285 78 OFFCURVE",
"259 65 OFFCURVE",
"230 65 CURVE SMOOTH",
"199 65 OFFCURVE",
"175 78 OFFCURVE",
"175 130 CURVE SMOOTH",
"175 589 LINE SMOOTH",
"175 625 OFFCURVE",
"168 640 OFFCURVE",
"132 640 CURVE SMOOTH",
"94 640 OFFCURVE",
"90 625 OFFCURVE",
"90 589 CURVE SMOOTH",
"90 130 LINE SMOOTH",
"90 23 OFFCURVE",
"144 -10 OFFCURVE",
"227 -10 CURVE SMOOTH"
);
}
);
width = 655;
}
);
leftMetricsKey = u108A8;
rightMetricsKey = u108A8;
unicode = 108A9;
},
{
glyphname = u108AA;
lastChange = "2018-02-05 21:34:13 +0000";
layers = (
{
layerId = UUID0;
paths = (
{
closed = 1;
nodes = (
"278 -10 OFFCURVE",
"315 5 OFFCURVE",
"341 48 CURVE",
"316 48 LINE",
"339 5 OFFCURVE",
"375 -10 OFFCURVE",
"422 -10 CURVE SMOOTH",
"473 -10 OFFCURVE",
"510 5 OFFCURVE",
"536 48 CURVE",
"511 48 LINE",
"534 5 OFFCURVE",
"570 -10 OFFCURVE",
"625 -10 CURVE SMOOTH",
"709 -10 OFFCURVE",
"760 23 OFFCURVE",
"760 132 CURVE SMOOTH",
"760 589 LINE SMOOTH",
"760 625 OFFCURVE",
"756 640 OFFCURVE",
"717 640 CURVE SMOOTH",
"679 640 OFFCURVE",
"675 625 OFFCURVE",
"675 589 CURVE SMOOTH",
"675 130 LINE SMOOTH",
"675 78 OFFCURVE",
"649 65 OFFCURVE",
"620 65 CURVE SMOOTH",
"589 65 OFFCURVE",
"565 78 OFFCURVE",
"565 130 CURVE SMOOTH",
"565 589 LINE SMOOTH",
"565 625 OFFCURVE",
"561 640 OFFCURVE",
"522 640 CURVE SMOOTH",
"484 640 OFFCURVE",
"480 625 OFFCURVE",
"480 589 CURVE SMOOTH",
"480 130 LINE SMOOTH",
"480 78 OFFCURVE",
"454 65 OFFCURVE",
"425 65 CURVE SMOOTH",
"394 65 OFFCURVE",
"370 78 OFFCURVE",
"370 130 CURVE SMOOTH",
"370 589 LINE SMOOTH",
"370 625 OFFCURVE",
"364 640 OFFCURVE",
"328 640 CURVE SMOOTH",
"287 640 OFFCURVE",
"285 625 OFFCURVE",
"285 589 CURVE SMOOTH",
"285 130 LINE SMOOTH",
"285 78 OFFCURVE",
"259 65 OFFCURVE",
"230 65 CURVE SMOOTH",
"199 65 OFFCURVE",
"175 78 OFFCURVE",
"175 130 CURVE SMOOTH",
"175 589 LINE SMOOTH",
"175 625 OFFCURVE",
"169 640 OFFCURVE",
"133 640 CURVE SMOOTH",
"95 640 OFFCURVE",
"90 625 OFFCURVE",
"90 589 CURVE SMOOTH",
"90 130 LINE SMOOTH",
"90 23 OFFCURVE",
"144 -10 OFFCURVE",
"227 -10 CURVE SMOOTH"
);
}
);
width = 850;
}
);
leftMetricsKey = u108A8;
rightMetricsKey = u108A8;
unicode = 108AA;
},
{
glyphname = u108AB;
lastChange = "2018-02-05 21:34:13 +0000";
layers = (
{
layerId = UUID0;
paths = (
{
closed = 1;
nodes = (
"614 -10 OFFCURVE",
"623 -5 OFFCURVE",
"633 5 CURVE SMOOTH",
"647 19 OFFCURVE",
"652 26 OFFCURVE",
"652 36 CURVE SMOOTH",
"652 47 OFFCURVE",
"645 57 OFFCURVE",
"632 71 CURVE SMOOTH",
"129 622 LINE SMOOTH",
"118 634 OFFCURVE",
"109 640 OFFCURVE",
"100 640 CURVE SMOOTH",
"91 640 OFFCURVE",
"83 636 OFFCURVE",
"70 625 CURVE SMOOTH",
"56 613 OFFCURVE",
"50 603 OFFCURVE",
"50 593 CURVE SMOOTH",
"50 585 OFFCURVE",
"56 575 OFFCURVE",
"66 565 CURVE SMOOTH",
"570 14 LINE SMOOTH",
"583 -1 OFFCURVE",
"594 -10 OFFCURVE",
"605 -10 CURVE SMOOTH"
);
},
{
closed = 1;
nodes = (
"114 -10 OFFCURVE",
"125 -1 OFFCURVE",
"138 14 CURVE SMOOTH",
"637 565 LINE SMOOTH",
"647 576 OFFCURVE",
"653 585 OFFCURVE",
"653 593 CURVE SMOOTH",
"653 603 OFFCURVE",
"648 613 OFFCURVE",
"633 625 CURVE SMOOTH",
"620 635 OFFCURVE",
"612 640 OFFCURVE",
"603 640 CURVE SMOOTH",
"594 640 OFFCURVE",
"586 634 OFFCURVE",
"575 622 CURVE SMOOTH",
"76 71 LINE SMOOTH",
"64 57 OFFCURVE",
"56 47 OFFCURVE",
"56 36 CURVE SMOOTH",
"56 26 OFFCURVE",
"62 18 OFFCURVE",
"75 5 CURVE SMOOTH",
"86 -6 OFFCURVE",
"94 -10 OFFCURVE",
"103 -10 CURVE SMOOTH"
);
}
);
width = 703;
}
);
unicode = 108AB;
},
{
glyphname = u108AC;
lastChange = "2018-02-05 21:34:13 +0000";
layers = (
{
layerId = UUID0;
paths = (
{
closed = 1;
nodes = (
"110 -10 OFFCURVE",
"361 101 OFFCURVE",
"361 262 CURVE SMOOTH",
"361 345 OFFCURVE",
"294 376 OFFCURVE",
"233 376 CURVE SMOOTH",
"219 376 OFFCURVE",
"201 375 OFFCURVE",
"184 373 CURVE",
"252 460 OFFCURVE",
"313 537 OFFCURVE",
"341 572 CURVE SMOOTH",
"349 582 OFFCURVE",
"356 592 OFFCURVE",
"356 602 CURVE SMOOTH",
"356 611 OFFCURVE",
"349 620 OFFCURVE",
"338 628 CURVE SMOOTH",
"323 639 OFFCURVE",
"312 640 OFFCURVE",
"305 640 CURVE SMOOTH",
"296 640 OFFCURVE",
"291 636 OFFCURVE",
"282 625 CURVE SMOOTH",
"237 570 OFFCURVE",
"133 432 OFFCURVE",
"96 373 CURVE SMOOTH",
"86 357 OFFCURVE",
"83 347 OFFCURVE",
"83 334 CURVE SMOOTH",
"83 309 OFFCURVE",
"100 296 OFFCURVE",
"130 296 CURVE SMOOTH",
"140 296 OFFCURVE",
"155 298 OFFCURVE",
"169 300 CURVE SMOOTH",
"184 302 OFFCURVE",
"193 303 OFFCURVE",
"203 303 CURVE SMOOTH",
"246 303 OFFCURVE",
"272 289 OFFCURVE",
"272 248 CURVE SMOOTH",
"272 171 OFFCURVE",
"130 93 OFFCURVE",
"36 60 CURVE SMOOTH",
"25 56 OFFCURVE",
"20 50 OFFCURVE",
"20 36 CURVE SMOOTH",
"20 17 OFFCURVE",
"30 -10 OFFCURVE",
"56 -10 CURVE SMOOTH"
);
}
);
width = 411;
}
);
unicode = 108AC;
},
{
glyphname = u108AD;
lastChange = "2018-02-05 21:34:13 +0000";
layers = (
{
layerId = UUID0;
paths = (
{
closed = 1;
nodes = (
"90 -10 OFFCURVE",
"103 12 OFFCURVE",
"114 34 CURVE SMOOTH",
"190 181 OFFCURVE",
"322 329 OFFCURVE",
"482 329 CURVE SMOOTH",
"584 329 OFFCURVE",
"619 273 OFFCURVE",
"619 138 CURVE SMOOTH",
"619 109 OFFCURVE",
"618 93 OFFCURVE",
"615 62 CURVE SMOOTH",
"614 48 OFFCURVE",
"613 30 OFFCURVE",
"613 20 CURVE SMOOTH",
"613 -6 OFFCURVE",
"636 -10 OFFCURVE",
"657 -10 CURVE SMOOTH",
"686 -10 OFFCURVE",
"696 -3 OFFCURVE",
"699 12 CURVE SMOOTH",
"704 38 OFFCURVE",
"706 105 OFFCURVE",
"706 151 CURVE SMOOTH",
"706 300 OFFCURVE",
"652 404 OFFCURVE",
"497 404 CURVE SMOOTH",
"283 404 OFFCURVE",
"146 258 OFFCURVE",
"41 80 CURVE SMOOTH",
"28 58 OFFCURVE",
"20 40 OFFCURVE",
"20 29 CURVE SMOOTH",
"20 -2 OFFCURVE",
"48 -10 OFFCURVE",
"64 -10 CURVE SMOOTH"
);
}
);
width = 746;
}
);
unicode = 108AD;
},
{
glyphname = u108AE;
lastChange = "2018-02-05 21:34:13 +0000";
layers = (
{
layerId = UUID0;
paths = (
{
closed = 1;
nodes = (
"369 -10 OFFCURVE",
"443 67 OFFCURVE",
"443 177 CURVE SMOOTH",
"443 255 OFFCURVE",
"409 326 OFFCURVE",
"309 346 CURVE",
"310 326 LINE",
"397 359 OFFCURVE",
"424 414 OFFCURVE",
"424 474 CURVE SMOOTH",
"424 562 OFFCURVE",
"369 640 OFFCURVE",
"241 640 CURVE SMOOTH",
"135 640 OFFCURVE",
"68 595 OFFCURVE",
"68 561 CURVE SMOOTH",
"68 532 OFFCURVE",
"89 516 OFFCURVE",
"111 516 CURVE SMOOTH",
"124 516 OFFCURVE",
"134 522 OFFCURVE",
"144 530 CURVE SMOOTH",
"164 545 OFFCURVE",
"194 563 OFFCURVE",
"237 563 CURVE SMOOTH",
"299 563 OFFCURVE",
"334 530 OFFCURVE",
"334 472 CURVE SMOOTH",
"334 410 OFFCURVE",
"294 384 OFFCURVE",
"216 368 CURVE SMOOTH",
"194 364 OFFCURVE",
"188 357 OFFCURVE",
"188 336 CURVE SMOOTH",
"188 311 OFFCURVE",
"191 302 OFFCURVE",
"216 298 CURVE SMOOTH",
"280 288 OFFCURVE",
"353 269 OFFCURVE",
"353 175 CURVE SMOOTH",
"353 104 OFFCURVE",
"309 63 OFFCURVE",
"243 63 CURVE SMOOTH",
"145 63 OFFCURVE",
"122 122 OFFCURVE",
"110 191 CURVE SMOOTH",
"106 214 OFFCURVE",
"93 220 OFFCURVE",
"70 220 CURVE SMOOTH",
"40 220 OFFCURVE",
"30 203 OFFCURVE",
"30 183 CURVE SMOOTH",
"30 121 OFFCURVE",
"65 -10 OFFCURVE",
"244 -10 CURVE SMOOTH"
);
}
);
width = 503;
}
);
unicode = 108AE;
},
{
glyphname = u108AF;
lastChange = "2018-02-05 21:34:13 +0000";
layers = (
{
layerId = UUID0;
paths = (
{
closed = 1;
nodes = (
"298 -10 OFFCURVE",
"318 -5 OFFCURVE",
"318 18 CURVE SMOOTH",
"318 492 LINE SMOOTH",
"318 602 OFFCURVE",
"261 640 OFFCURVE",
"185 640 CURVE SMOOTH",
"85 640 OFFCURVE",
"40 577 OFFCURVE",
"40 509 CURVE SMOOTH",
"40 414 OFFCURVE",
"107 370 OFFCURVE",
"194 370 CURVE SMOOTH",
"212 370 OFFCURVE",
"230 371 OFFCURVE",
"249 376 CURVE",
"245 450 LINE",
"231 445 OFFCURVE",
"214 442 OFFCURVE",
"196 442 CURVE SMOOTH",
"155 442 OFFCURVE",
"128 462 OFFCURVE",
"128 507 CURVE SMOOTH",
"128 542 OFFCURVE",
"147 566 OFFCURVE",
"182 566 CURVE SMOOTH",
"212 566 OFFCURVE",
"230 549 OFFCURVE",
"230 507 CURVE SMOOTH",
"230 18 LINE SMOOTH",
"230 -3 OFFCURVE",
"249 -10 OFFCURVE",
"274 -10 CURVE SMOOTH"
);
}
